<svg version="1.1" viewBox="0.0 0.0 960.0 720.0" fill="none" stroke="none" stroke-linecap="square" stroke-miterlimit="10" xmlns:xlink="http://www.w3.org/1999/xlink" xmlns="http://www.w3.org/2000/svg"><clipPath id="p.0"><path d="m0 0l960.0 0l0 720.0l-960.0 0l0 -720.0z" clip-rule="nonzero"/></clipPath><g clip-path="url(#p.0)"><path fill="#000000" fill-opacity="0.0" d="m0 0l960.0 0l0 720.0l-960.0 0z" fill-rule="evenodd"/><path fill="#ffffff" d="m591.9993 471.4685c-1.0 2.3333435 5.0 48.666687 60.0 72.0c55.0 23.333313 240.33337 62.333313 270.0 68.0c29.666687 5.666687 -48.0 -20.333313 -92.0 -34.0c-44.0 -13.666687 -132.33331 -30.333313 -172.0 -48.0c-39.666626 -17.666656 -65.0 -60.333344 -66.0 -58.0z" fill-rule="evenodd"/><path fill="#ffffff" d="m398.00067 704.5317c5.0 -32.0 55.333313 -166.66669 30.0 -192.0c-25.333344 -25.333344 -131.33334 41.0 -182.00002 40.0c-50.66667 -1.0 -88.0 -49.333344 -122.0 -46.00003c-34.0 3.3333435 -77.66667 68.00003 -82.0 66.00003c-4.333332 -2.0 33.333336 -66.66669 56.0 -78.00003c22.666664 -11.333313 65.0 20.00003 80.0 10.0c15.0 -10.0 16.0 -53.0 10.0 -70.0c-6.0 -17.0 -50.0 -30.666656 -46.0 -32.0c4.0 -1.333313 61.33333 5.666687 70.0 24.0c8.666672 18.333344 -21.666672 67.66669 -18.0 86.00003c3.6666718 18.333313 14.0 26.0 40.0 24.0c26.000015 -2.0 82.000015 -26.333344 116.000015 -36.00003c34.0 -9.6666565 68.66666 -24.666656 88.0 -22.0c19.333313 2.666687 22.0 39.333344 28.0 38.00003c6.0 -1.333374 7.333313 -34.666687 8.0 -46.00003c0.6666565 -11.333313 7.333313 -14.6666565 -4.0 -22.0c-11.3333435 -7.333313 -41.666687 -24.333313 -64.0 -22.0c-22.333344 2.3333435 -42.333344 43.0 -70.0 36.0c-27.666687 -7.0 -96.000015 -75.33331 -96.000015 -78.0c0 -2.6666565 68.33333 59.0 96.000015 62.0c27.666656 3.0 43.333313 -42.666656 70.0 -44.0c26.666656 -1.333313 75.33331 15.666687 90.0 36.0c14.6666565 20.333344 -11.666687 89.00003 -2.0 86.00003c9.6666565 -3.0 67.666626 -68.66669 60.0 -104.00003c-7.666687 -35.333313 -69.33334 -96.0 -106.0 -108.0c-36.666687 -12.0 -69.33334 42.0 -114.0 36.0c-44.666687 -6.0 -112.000015 -64.0 -154.00002 -72.0c-42.0 -8.0 -87.666664 25.0 -98.0 24.0c-10.333336 -1.0 18.333336 -22.666656 36.0 -30.0c17.666672 -7.333313 32.66667 -24.333313 70.0 -14.0c37.33333 10.3333435 131.33333 80.33334 154.00002 76.0c22.666656 -4.333313 -1.3333435 -80.999985 -18.0 -101.999985c-16.666687 -21.0 -82.33334 -20.333328 -82.000015 -24.0c0.33332825 -3.6666718 63.33333 -17.666672 84.000015 2.0c20.666656 19.666672 28.666656 98.66667 40.0 115.999985c11.333313 17.333344 15.6666565 -7.0 28.0 -12.0c12.333313 -5.0 22.0 -25.666656 46.0 -18.0c24.0 7.666687 75.0 41.0 98.0 64.0c23.0 23.0 43.0 42.333344 40.0 74.0c-3.0 31.666687 -52.666687 98.66666 -58.0 116.00003c-5.333374 17.333313 4.333313 5.333313 26.0 -12.0c21.666626 -17.333374 40.666626 -92.66669 104.0 -92.00003c63.333313 0.666687 240.66663 87.33334 276.0 96.00003c35.333313 8.666626 -34.666687 -29.333344 -64.0 -44.00003c-29.333374 -14.6666565 -109.333374 -31.333313 -112.0 -44.0c-2.666687 -12.6666565 64.666626 -37.333313 96.0 -32.0c31.333313 5.3333435 86.0 64.33334 92.0 64.0c6.0 -0.333313 -31.333374 -52.0 -56.0 -66.0c-24.666687 -14.0 -67.0 -22.0 -92.0 -18.0c-25.0 4.0 -47.666687 42.666687 -58.0 42.0c-10.333374 -0.6666565 -13.0 -31.0 -4.0 -46.0c9.0 -15.0 33.333313 -39.666656 58.0 -44.0c24.666626 -4.333313 86.0 20.333344 90.0 18.0c4.0 -2.333313 -60.666687 -21.0 -66.0 -32.0c-5.333374 -11.0 22.0 -23.0 34.0 -34.0c12.0 -11.0 45.0 -34.666656 38.0 -32.0c-7.0 2.666687 -62.333374 47.666687 -80.0 48.0c-17.666687 0.3333435 -40.333374 -28.333313 -26.0 -46.0c14.333313 -17.666656 113.33331 -56.999985 112.0 -59.999985c-1.333374 -3.0 -99.66669 22.333328 -120.0 41.999985c-20.333374 19.666687 6.0 55.0 -2.0 76.0c-8.0 21.0 -36.333374 32.333344 -46.0 50.0c-9.666687 17.666687 1.666626 49.333344 -12.0 56.0c-13.666687 6.666687 -50.333374 -21.666656 -70.0 -16.0c-19.666687 5.666687 -40.0 41.666687 -48.0 50.0" fill-rule="evenodd"/><path fill="#ffffff" d="m596.00134 466.53348c-1.0 -14.3333435 18.333313 -74.33334 4.0 -104.0c-14.333374 -29.666687 -71.0 -52.0 -90.00003 -74.0c-19.0 -22.0 -5.6666565 -45.666687 -24.0 -58.000015c-18.333344 -12.333328 -65.66666 -4.0 -86.0 -16.0c-20.333344 -12.0 -14.6666565 -48.66667 -36.0 -56.0c-21.333344 -7.3333282 -93.0 14.333328 -92.0 12.0c1.0 -2.3333282 76.0 -32.33333 98.0 -26.0c22.0 6.3333282 14.0 52.0 34.0 64.0c20.0 12.0 67.66666 -3.6666718 86.0 8.0c18.333344 11.666672 6.6666565 42.33333 24.00003 62.000015c17.333313 19.666656 60.666626 53.0 80.0 56.0c19.333313 3.0 41.333313 -29.666687 36.0 -38.0c-5.333374 -8.3333435 -50.333374 4.0 -68.0 -12.0c-17.666687 -16.0 -50.666687 -60.000015 -38.0 -84.000015c12.666626 -24.0 99.666626 -54.33333 114.0 -60.0c14.333313 -5.6666718 -12.0 17.0 -28.0 26.0c-16.0 9.0 -54.333374 19.0 -68.0 28.0c-13.666687 9.0 -19.666687 10.666672 -14.0 26.0c5.666626 15.333328 27.666626 56.33333 48.0 66.000015c20.333313 9.6666565 66.0 -18.666687 74.0 -8.0c8.0 10.6666565 -32.333374 64.33331 -26.0 72.0c6.333313 7.6666565 53.666626 -10.0 64.0 -26.0c10.333313 -16.0 9.333313 -55.333344 -2.0 -70.000015c-11.333374 -14.666672 -68.333374 -3.6666718 -66.0 -18.0c2.333313 -14.333328 35.666626 -55.0 80.0 -68.0c44.333313 -13.0 171.66663 -11.0 186.0 -10.0c14.333313 1.0 -68.333374 11.0 -100.0 16.0c-31.666687 5.0 -66.0 4.6666718 -90.0 14.0c-24.0 9.333328 -57.0 33.66667 -54.0 42.0c3.0 8.333328 60.0 0 72.0 8.0c12.0 8.0 -5.666687 42.66667 0 40.000015c5.666626 -2.666687 18.333313 -43.333344 34.0 -56.000015c15.666626 -12.666672 58.333313 -20.666672 60.0 -20.0c1.666626 0.66667175 -35.333374 8.0 -50.0 24.0c-14.666687 16.0 -27.0 52.33333 -38.0 72.000015c-11.0 19.666656 -12.0 32.333313 -28.0 46.0c-16.0 13.6666565 -53.666687 18.666656 -68.0 36.0c-14.333374 17.333313 -13.333374 53.666656 -18.0 68.0c-4.666687 14.333313 -9.0 32.333313 -10.0 18.0z" fill-rule="evenodd"/><path fill="#ffffff" d="m593.9997 472.5328c4.333313 4.0 -39.666687 69.33334 -50.0 108.00003c-10.333374 38.666626 12.666626 103.666626 -12.0 124.0c-24.666687 20.333313 -133.66669 22.666626 -136.00003 -2.0c-2.333313 -24.666687 89.0 -107.66669 122.00003 -146.0c33.0 -38.333374 71.666626 -88.00003 76.0 -84.00003z" fill-rule="evenodd"/><path fill="#ffffff" d="m660.3673 517.93524c12.709778 -3.309082 51.842346 -7.725708 90.30603 -2.222351c38.463684 5.503296 134.79004 32.30432 140.47601 35.24237c5.685913 2.9380493 -70.23804 -15.049377 -106.36041 -17.614014c-36.122437 -2.5645752 -89.637085 4.7940674 -110.37402 2.2264404c-20.736938 -2.567688 -26.757324 -14.323303 -14.047607 -17.632446z" fill-rule="evenodd"/><path fill="#ffffff" d="m446.0013 417.6007c5.3333435 -7.333313 28.333344 -46.666656 12.0 -52.0c-16.333344 -5.333313 -77.66666 22.333344 -110.0 20.0c-32.333344 -2.333313 -57.0 -26.0 -84.0 -34.0c-27.0 -8.0 -42.33333 -22.0 -78.0 -14.0c-35.66667 8.0 -139.0 59.333344 -136.0 62.0c3.0 2.666687 115.33333 -42.333313 154.0 -46.0c38.66667 -3.6666565 55.333344 15.666687 78.0 24.0c22.666656 8.3333435 31.666656 25.333344 58.0 26.0c26.333344 0.666687 85.66666 -23.0 100.0 -22.0c14.3333435 1.0 -15.0 22.0 -14.0 28.0c1.0 6.0 14.6666565 15.3333435 20.0 8.0z" fill-rule="evenodd"/><path fill="#ffffff" d="m336.0 461.38c-5.3333435 0.7460022 -5.3333435 10.692657 -14.0 13.428009c-8.6666565 2.735321 -28.333344 8.205994 -38.0 2.9840088c-9.6666565 -5.2220154 -17.333344 -35.06201 -20.0 -34.31601c-2.6666565 0.7460022 -4.3333435 31.332 4.0 38.791992c8.3333435 7.4599915 31.666656 7.9573364 46.0 5.9680176c14.3333435 -1.9893494 36.333344 -13.428009 40.0 -17.904022c3.6666565 -4.4759827 -12.6666565 -9.697998 -18.0 -8.951996z" fill-rule="evenodd"/></g></svg>